# xmcd
#
# Track frame offsets: 
#        150
#        19270
#        36027
#        51970
#        68457
#        83800
#        97940
#        118257
#        131012
#        143540
#        162327
#        177862
#
# Disc length: 2625 seconds
#
# Revision: 0
# Processed by: cddbd v1.4PL0 Copyright (c) Steve Scherf et al.
# Submitted via: ExactAudioCopy v0.90b4
#
DISCID=980a3f0c
DTITLE=The Mole Train - Leftover Lullabies
DYEAR=2000
DGENRE=Rock
TTITLE0=(Tearin' down) the Tinsel Room
TTITLE1=Lots of Trouble
TTITLE2=Shootin' Troubles
TTITLE3=Pray for Me Mama
TTITLE4=It's too Late
TTITLE5=Rule My World
TTITLE6=The Loneliest Man in the World
TTITLE7=Prayin' for Time
TTITLE8=Drivin' Nails in My Coffin
TTITLE9=Business of Love
TTITLE10=The King of Spades and the Queen of Hearts
TTITLE11=Dead Flowers
EXTD=
EXTT0=
EXTT1=
EXTT2=
EXTT3=
EXTT4=
EXTT5=
EXTT6=
EXTT7=
EXTT8=
EXTT9=
EXTT10=
EXTT11=
PLAYORDER=
